<svg version="1.2" xmlns="http://www.w3.org/2000/svg" viewBox="0 0 850 850" width="850" height="850">
	<style>
		.s0 { fill: #69c9cc } 
		.s1 { fill: #9d89c0 } 
		.s2 { fill: #37356e } 
		.s3 { opacity: .3;fill: #71c9c3 } 
		.s4 { opacity: .34;mix-blend-mode: multiply;fill: #71c9c3 } 
		.s5 { fill: #fbc298 } 
		.s6 { fill: #fddbc0 } 
		.s7 { fill: #bbbdbf } 
		.s8 { fill: #71c9c3 } 
		.s9 { fill: #939598 } 
		.s10 { fill: #3b4ea1 } 
		.s11 { fill: #fefefe } 
		.s12 { fill: #f8a35d } 
		.s13 { fill: #9ed9df } 
	</style>
	<g id="Capa 1">
		<g id="Paquete de vectores: motivo de puntos 15">
		</g>
		<g id="Paquete de vectores: motivo de puntos 15">
		</g>
		<g id="Paquete de vectores: motivo de puntos 03">
		</g>
		<g id="&lt;Group&gt;">
			<g id="&lt;Group&gt;">
				<g id="&lt;Group&gt;" style="opacity: .2">
					<path id="&lt;Path&gt;" class="s0" d="m850.39 850h-850.39v-850.39h850.39z"/>
				</g>
				<g id="&lt;Group&gt;">
					<path id="&lt;Path&gt;" class="s1" d="m850.39 527.8h-850.39v322.2h850.39z"/>
				</g>
			</g>
			<g id="&lt;Group&gt;">
				<g id="&lt;Group&gt;">
					<path id="&lt;Path&gt;" class="s2" d="m104.64 527.8h-104.64v-415.73h104.64z"/>
				</g>
			</g>
		</g>
		<g id="&lt;Group&gt;">
			<path id="&lt;Path&gt;" class="s3" d="m785.18 365.78h-483.15v-272.48h483.15z"/>
			<path id="&lt;Path&gt;" class="s4" d="m772.73 262.18v1.99h-0.14v3.24h0.14v1.11h-0.14v3.25h0.14v0.69h-8.57v26.4h-8.29v-3.07h-0.16v-3.36h0.16v-3.24h-0.16v-3.36h0.16v-3.24h-0.16v-3.36h0.16v-3.24h-0.16v-3.36h0.16v-3.25h-0.16v-3.86h-1.42v-6.67h-46.1v-1.67h-0.17v-1.68h0.17v-2.72h-0.17v-1.67h0.17v-2.72h-0.17v-1.68h0.17v-2.71h-0.17v-1.68h0.17v-2.71h-0.17v-1.67h0.17v-2.73h-0.17v-1.67h0.17v-2.72h-0.17v-1.67h0.17v-2.72h-0.17v-1.67h0.17v-2.72h-0.17v-1.68h0.17v-2.71h-0.17v-1.68h0.17v-2.71h-0.17v-1.68h0.17v-2.72h-0.17v-2.18h0.17v-51.3h1.68v-1.27h-1.85v-1.46l-9.78-1.25v-1.88l-1.72-0.89v2.55l-1.9-0.25v-1.61l-1.36-0.68v2.12l-2.1-0.27v-1.47l-1.38-0.71v2l-14.39-1.85v5.65h-1.85v1.27h1.68v44.27h-34.54v-0.17h-0.16v-2.67h0.16v-7.08h-0.16v-3.59h0.85v-1.37h-0.85v-0.46h0.85v-1.37h-0.69v-2.11h-0.16v-0.45h0.85v-1.37h-0.85v-0.46h0.85v-1.37h-0.69v-2.11h-0.16v-0.45h0.85v-1.38h-0.85v-0.46h0.85v-1.37h-0.69v-2.1h-0.16v-0.46h0.85v-1.37h-0.85v-0.46h0.85v-1.37h-0.69v-2.1h-0.16v-1.48h-3.03v-6.69h3.03c0 0-0.54-4.04-6.36-4.04-4.84 0-14.04 0-22.35 0l0.13-0.11-9.36-11.06v-18.38h-0.34v29.55c-4.51 0-7.6 0-7.6 0v33.31h-0.02v-3.9h-3.13v-6.38h-4.61v-6.38h-4.31v-6.37h-32.32v6.37h-4.32v6.38h-4.6v6.38h-3.13v3.9h-0.17v2.57h0.17v2.15h-0.17v2.58h0.17v2.15h-0.17v2.57h0.17v2.15h-0.17v2.57h0.17v2.16h-0.17v2.57h0.17v2.16h-0.17v2.57h0.17v2.15h-0.17v2.58h0.17v2.15h-0.17v2.57h0.17v2.15h-0.17v2.58h0.17v2.15h-0.17v2.57h0.17v2.15h-0.17v2.57h0.17v2.16h-0.17v2.57h0.17v2.16h-0.17v2.57h0.17v2.15h-0.17v1.44h-11.51q-0.42 0-0.82 0.08v-55.67h-1.47v-5.85h-52.75v-1.27h-45.04v-0.16h-3.87v0.16h-11.82v5.47h-0.17v0.17h-0.02v67.48h-15.33v-1.98h0.2v-2.84h-0.2v-2.93h0.2v-2.85h-0.2v-2.93h0.2v-2.85h-0.2v-2.78h-16.84v-0.18h-1.91v0.18h-26.84v2.78h-0.14v2.85h0.14v2.93h-0.14v2.85h0.14v2.93h-0.14v2.84h0.14v2.94h-0.14v2.84h0.14v2.93h-0.14v2.85h0.14v2.93h-0.14v2.85h0.14v2.93h-0.14v2.85h0.14v1.19h-19.71v-2.11h-0.14v-2.14h0.14v-2.25h-0.14v-2.14h0.14v-2.25h-0.14v-2.14h0.14v-2.25h-0.14v-2.14h0.14v-2.26h-0.14v-2.13h0.14v-2.25h-0.14v-2.15h0.14v-2.24h-0.14v-2.15h0.14v-2.25h-0.14v-2.14h0.14v-2.25h-0.14v-2.14h0.14v-2.25h-0.14v-2.14h0.14v-2.26h-0.14v-2.14h0.14v-2.24h-0.14v-2.15h0.14v-2.25h-0.14v-4.25h-2.55v-2.53h-25.21v2.53 4.25 0.04 0.24 1.69 0.03 0.25 2.15 0.03 0.25 1.68 0.04 0.24 2.14 0.04 0.24 1.69 0.04 0.25 2.14 0.04 0.24 1.69 0.03 0.25 2.14 0.03 0.25 1.69 0.04 0.24 2.14 0.04 0.24 1.69 0.04 0.24 2.15 0.03 0.25 1.68 0.03 0.25 2.15 0.03 0.25 1.69 0.03 0.25 2.13 0.04 0.24 1.7 0.04 0.24 2.14 0.04 0.24 1.69 0.03 0.25 2.14 0.03 0.25 1.69 0.03 0.25 2.14 0.03 0.25 1.69 0.03 0.25 2.14 0.03 0.25 1.69 0.04 0.24 2.14 0.04 0.24 1.7 0.03 0.25 2.14 0.03 0.25 1.68 0.04 0.24 2.15 0.03 0.25 1.69 0.03 0.25 2.14 0.03 0.25 1.69 0.03 0.25 2.14 0.04 0.24 1.69 0.04 0.24 2.14 0.03 0.25 1.69 0.04 0.24 1.71 0.44 0.03 0.25 1.68 0.03 0.25 2.14 0.04 0.24 1.69 0.04 0.24 2.15 0.03 0.24 1.69 0.04 0.24 2.14 0.04 0.24 1.7 0.03 0.25 2.14 0.04 0.24 1.69 0.03 0.24 2.16 0.03 0.25 1.68 0.03 0.25 2.14 0.04 0.24 1.69 0.03 0.25 2.14 0.04 0.25 1.69 0.03 0.25 2.13 0.04 0.24 1.7 0.03 0.25 2.14 0.03 0.25 1.69 0.03 0.25 14.85h0.37 19.72 7.67 19.85 8.13 12.64 6.07 0.37 1.17 0.37 16.84 15.52 11.82 0.34 3.2 0.33 41.61 3.43 3.79 0.34 2.85 0.34 29.68 0.34 2.85 0.34 9.05 4.64 12.5 15.06 0.34 9.32 0.34 7.54 23.82v-21.85h0.02v21.85h42.16 3.72 34.87 7.25 22.81 2.57 27.02 0.33 1.36 0.33 15.83 2.82 8.45 4.51 4.06 8.58 3.87v-103.34z"/>
		</g>
		<g id="&lt;Group&gt;">
			<g id="&lt;Group&gt;">
				<g id="&lt;Group&gt;">
					<g id="&lt;Group&gt;">
						<path id="&lt;Path&gt;" class="s5" d="m449 630.21h-126.07v-105.75h126.07z"/>
					</g>
					<g id="&lt;Group&gt;">
						<g id="&lt;Group&gt;">
							<path id="&lt;Path&gt;" class="s6" d="m438.87 570.09h-105.81v-33.53h105.81z"/>
						</g>
						<g id="&lt;Group&gt;">
							<path id="&lt;Path&gt;" class="s6" d="m438.87 618.11h-105.81v-33.52h105.81z"/>
						</g>
					</g>
				</g>
				<g id="&lt;Group&gt;">
					<path id="&lt;Path&gt;" class="s7" d="m408.97 520.37h-9v-42.59h9z"/>
					<g id="&lt;Group&gt;">
						<path id="&lt;Path&gt;" class="s8" d="m427.47 477.78h-46v-83.64h46z"/>
					</g>
					<path id="&lt;Path&gt;" class="s9" d="m420.47 524.46h-32v-8.18h32z"/>
				</g>
				<g id="&lt;Group&gt;">
					<g id="&lt;Group&gt;">
						<g id="&lt;Group&gt;">
							<g id="&lt;Group&gt;">
								<path id="&lt;Path&gt;" class="s10" d="m362.81 490.25c0.62 0.13 1.28-0.05 1.74-0.54l5.97-6.29c0.72-0.76 0.69-1.94-0.06-2.66-0.75-0.71-1.94-0.68-2.66 0.07l-5.97 6.29c-0.71 0.76-0.68 1.94 0.07 2.66q0.4 0.37 0.91 0.47z"/>
							</g>
							<g id="&lt;Group&gt;">
								<path id="&lt;Path&gt;" class="s10" d="m374.88 490.65c2.76-4.38 1.96-10.24-2.11-13.68-4.07-3.44-9.99-3.26-13.85 0.19z"/>
							</g>
						</g>
						<g id="&lt;Group&gt;">
							<g id="&lt;Group&gt;">
								<path id="&lt;Path&gt;" class="s10" d="m341.1 490.25c-0.62 0.13-1.28-0.05-1.74-0.54l-5.98-6.29c-0.71-0.76-0.68-1.94 0.07-2.66 0.75-0.71 1.94-0.68 2.65 0.07l5.98 6.29c0.71 0.76 0.68 1.94-0.07 2.66q-0.4 0.37-0.91 0.47z"/>
							</g>
							<g id="&lt;Group&gt;">
								<path id="&lt;Path&gt;" class="s10" d="m329.03 490.65c-2.76-4.38-1.96-10.24 2.11-13.68 4.08-3.44 9.99-3.26 13.85 0.19z"/>
							</g>
						</g>
					</g>
					<g id="&lt;Group&gt;">
						<path id="&lt;Path&gt;" class="s10" d="m368 524.57c-0.63 0-1.24-0.31-1.59-0.88l-4.59-7.37c-0.55-0.88-0.28-2.04 0.61-2.58 0.87-0.55 2.04-0.28 2.58 0.6l4.58 7.36c0.55 0.89 0.28 2.04-0.6 2.59q-0.48 0.29-0.99 0.28z"/>
					</g>
					<g id="&lt;Group&gt;">
						<path id="&lt;Path&gt;" class="s10" d="m336.85 524.57c0.63 0 1.24-0.31 1.59-0.88l4.59-7.37c0.54-0.88 0.27-2.04-0.61-2.58-0.88-0.55-2.03-0.28-2.58 0.6l-4.59 7.36c-0.54 0.89-0.27 2.04 0.61 2.59q0.47 0.29 0.99 0.28z"/>
					</g>
					<g id="&lt;Group&gt;">
						<g id="&lt;Group&gt;">
							<g id="&lt;Group&gt;">
								<path id="&lt;Path&gt;" class="s11" d="m352.1 520.01c-10.52 0-19.08-8.57-19.08-19.1 0-10.53 8.56-19.08 19.08-19.08 10.53 0 19.09 8.55 19.09 19.08 0 10.53-8.56 19.1-19.09 19.1z"/>
							</g>
							<g id="&lt;Group&gt;">
								<path id="&lt;Compound Path&gt;" fill-rule="evenodd" class="s10" d="m372.35 500.91c0 11.18-9.08 20.26-20.25 20.26-11.17 0-20.24-9.08-20.24-20.26 0-11.16 9.07-20.24 20.24-20.24 11.17 0 20.25 9.08 20.25 20.24zm-38.17 0c0 9.91 8.02 17.93 17.92 17.93 9.9 0 17.93-8.02 17.93-17.93 0-9.9-8.03-17.92-17.93-17.92-9.9 0-17.92 8.02-17.92 17.92z"/>
							</g>
						</g>
						<g id="&lt;Group&gt;">
							<g id="&lt;Group&gt;">
								<g id="&lt;Group&gt;">
									<path id="&lt;Path&gt;" class="s10" d="m352.84 488.37c0 0.4-0.33 0.74-0.74 0.74-0.41 0-0.73-0.34-0.73-0.74v-3.11c0-0.4 0.32-0.73 0.73-0.73 0.41 0 0.74 0.33 0.74 0.73z"/>
								</g>
								<g id="&lt;Group&gt;">
									<path id="&lt;Path&gt;" class="s10" d="m352.84 516.57c0 0.41-0.33 0.74-0.74 0.74-0.41 0-0.73-0.33-0.73-0.74v-3.11c0-0.41 0.32-0.75 0.73-0.75 0.41 0 0.74 0.34 0.74 0.75z"/>
								</g>
							</g>
							<g id="&lt;Group&gt;">
								<g id="&lt;Group&gt;">
									<path id="&lt;Path&gt;" class="s10" d="m364.65 501.65c-0.4 0-0.74-0.32-0.74-0.74 0-0.4 0.34-0.73 0.74-0.73h3.11c0.4 0 0.73 0.33 0.73 0.73 0 0.42-0.33 0.74-0.73 0.74z"/>
								</g>
								<g id="&lt;Group&gt;">
									<path id="&lt;Path&gt;" class="s10" d="m336.45 501.65c-0.4 0-0.73-0.32-0.73-0.74 0-0.4 0.33-0.73 0.73-0.73h3.11c0.41 0 0.74 0.33 0.74 0.73 0 0.42-0.33 0.74-0.74 0.74z"/>
								</g>
							</g>
							<g id="&lt;Group&gt;">
								<g id="&lt;Group&gt;">
									<path id="&lt;Path&gt;" class="s10" d="m361.5 492.57c-0.29 0.29-0.76 0.29-1.05 0-0.29-0.29-0.29-0.76 0-1.05l2.2-2.2c0.29-0.29 0.75-0.29 1.04 0 0.29 0.3 0.29 0.76 0 1.05z"/>
								</g>
								<g id="&lt;Group&gt;">
									<path id="&lt;Path&gt;" class="s10" d="m341.56 512.5c-0.29 0.29-0.76 0.29-1.05 0-0.28-0.29-0.28-0.75 0-1.04l2.2-2.2c0.3-0.29 0.76-0.29 1.04 0 0.3 0.29 0.3 0.76 0 1.05z"/>
								</g>
							</g>
							<g id="&lt;Group&gt;">
								<g id="&lt;Group&gt;">
									<path id="&lt;Path&gt;" class="s10" d="m360.45 510.31c-0.29-0.29-0.29-0.76 0-1.05 0.29-0.29 0.76-0.29 1.05 0l2.19 2.2c0.29 0.29 0.29 0.75 0 1.04-0.29 0.29-0.75 0.29-1.04 0z"/>
								</g>
								<g id="&lt;Group&gt;">
									<path id="&lt;Path&gt;" class="s10" d="m340.51 490.37c-0.28-0.29-0.28-0.75 0-1.05 0.29-0.29 0.76-0.29 1.05 0l2.19 2.2c0.3 0.29 0.3 0.76 0 1.05-0.28 0.29-0.74 0.29-1.04 0z"/>
								</g>
							</g>
							<g id="&lt;Group&gt;">
								<g id="&lt;Group&gt;">
									<path id="&lt;Path&gt;" class="s10" d="m352.84 488.37c0 0.4-0.33 0.74-0.74 0.74-0.41 0-0.73-0.34-0.73-0.74v-3.11c0-0.4 0.32-0.73 0.73-0.73 0.41 0 0.74 0.33 0.74 0.73z"/>
								</g>
								<g id="&lt;Group&gt;">
									<path id="&lt;Path&gt;" class="s10" d="m352.84 516.57c0 0.41-0.33 0.74-0.74 0.74-0.41 0-0.73-0.33-0.73-0.74v-3.11c0-0.41 0.32-0.75 0.73-0.75 0.41 0 0.74 0.34 0.74 0.75z"/>
								</g>
							</g>
							<g id="&lt;Group&gt;">
								<g id="&lt;Group&gt;">
									<path id="&lt;Path&gt;" class="s10" d="m364.65 501.65c-0.4 0-0.74-0.32-0.74-0.74 0-0.4 0.34-0.73 0.74-0.73h3.11c0.4 0 0.73 0.33 0.73 0.73 0 0.42-0.33 0.74-0.73 0.74z"/>
								</g>
								<g id="&lt;Group&gt;">
									<path id="&lt;Path&gt;" class="s10" d="m336.45 501.65c-0.4 0-0.73-0.32-0.73-0.74 0-0.4 0.33-0.73 0.73-0.73h3.11c0.41 0 0.74 0.33 0.74 0.73 0 0.42-0.33 0.74-0.74 0.74z"/>
								</g>
							</g>
							<g id="&lt;Group&gt;">
								<g id="&lt;Group&gt;">
									<path id="&lt;Path&gt;" class="s10" d="m361.5 492.57c-0.29 0.29-0.76 0.29-1.05 0-0.29-0.29-0.29-0.76 0-1.05l2.2-2.2c0.29-0.29 0.75-0.29 1.04 0 0.29 0.3 0.29 0.76 0 1.05z"/>
								</g>
								<g id="&lt;Group&gt;">
									<path id="&lt;Path&gt;" class="s10" d="m341.56 512.5c-0.29 0.29-0.76 0.29-1.05 0-0.28-0.29-0.28-0.75 0-1.04l2.2-2.2c0.3-0.29 0.76-0.29 1.04 0 0.3 0.29 0.3 0.76 0 1.05z"/>
								</g>
							</g>
							<g id="&lt;Group&gt;">
								<g id="&lt;Group&gt;">
									<path id="&lt;Path&gt;" class="s10" d="m360.45 510.31c-0.29-0.29-0.29-0.76 0-1.05 0.29-0.29 0.76-0.29 1.05 0l2.19 2.2c0.29 0.29 0.29 0.75 0 1.04-0.29 0.29-0.75 0.29-1.04 0z"/>
								</g>
								<g id="&lt;Group&gt;">
									<path id="&lt;Path&gt;" class="s10" d="m340.51 490.37c-0.28-0.29-0.28-0.75 0-1.05 0.29-0.29 0.76-0.29 1.05 0l2.19 2.2c0.3 0.29 0.3 0.76 0 1.05-0.28 0.29-0.74 0.29-1.04 0z"/>
								</g>
							</g>
						</g>
						<g id="&lt;Group&gt;">
							<path id="&lt;Path&gt;" class="s12" d="m353.3 500.91c0 0.6-0.48 1.08-1.08 1.08-0.6 0-1.08-0.48-1.08-1.08v-10.11c0-0.59 0.48-1.07 1.08-1.07 0.6 0 1.08 0.48 1.08 1.07z"/>
							<path id="&lt;Path&gt;" class="s12" d="m345.57 505.77c-0.52 0.28-1.18 0.09-1.46-0.42-0.29-0.53-0.09-1.18 0.43-1.47l7.14-3.92c0.52-0.28 1.18-0.09 1.47 0.43 0.28 0.52 0.09 1.17-0.43 1.46z"/>
						</g>
					</g>
				</g>
			</g>
			<g id="&lt;Group&gt;">
				<g id="&lt;Group&gt;">
					<g id="&lt;Group&gt;">
						<path id="&lt;Path&gt;" class="s5" d="m450.01 705.47h-20.69v104.56h20.69z"/>
					</g>
					<g id="&lt;Group&gt;">
						<path id="&lt;Path&gt;" class="s5" d="m825.1 705.47h-20.69v104.56h20.69z"/>
					</g>
				</g>
				<g id="&lt;Group&gt;">
					<path id="&lt;Path&gt;" class="s8" d="m825.1 705.47h-395.78l57.89-177.51h280z"/>
				</g>
				<g id="&lt;Group&gt;">
					<path id="&lt;Path&gt;" class="s13" d="m787.7 590.79l-20.49-62.83h-280l-20.49 62.83z"/>
				</g>
				<g id="&lt;Group&gt;">
					<path id="&lt;Path&gt;" class="s6" d="m767.32 453.03h-280.22v74.93h280.22z"/>
				</g>
				<g id="&lt;Group&gt;">
					<path id="&lt;Path&gt;" class="s6" d="m825.1 705.47h-395.78v74.94h395.78z"/>
				</g>
				<g id="&lt;Group&gt;">
					<path id="&lt;Path&gt;" class="s11" d="m615.38 549.46c0 5.62-4.56 10.18-10.18 10.18h-93.07c-5.63 0-10.18-4.56-10.18-10.18v-43c0-5.63 4.55-10.18 10.18-10.18h93.07c5.62 0 10.18 4.55 10.18 10.18z"/>
					<path id="&lt;Path&gt;" class="s11" d="m752.48 549.46c0 5.62-4.56 10.18-10.19 10.18h-93.07c-5.62 0-10.18-4.56-10.18-10.18v-43c0-5.63 4.56-10.18 10.18-10.18h93.07c5.63 0 10.19 4.55 10.19 10.18z"/>
				</g>
			</g>
			<path id="&lt;Path&gt;" class="s11" d="m850.39 559.93h-56.28l45.66 140.57h10.62z"/>
		</g>
	</g>
</svg>